<?xml version="1.0" standalone="no"?>
<!DOCTYPE svg PUBLIC "-//W3C//DTD SVG 20010904//EN"
 "http://www.w3.org/TR/2001/REC-SVG-20010904/DTD/svg10.dtd">
<svg version="1.0" xmlns="http://www.w3.org/2000/svg"
 width="552.000000pt" height="350.000000pt" viewBox="0 0 552.000000 350.000000"
 preserveAspectRatio="xMidYMid meet">

<g transform="translate(0.000000,350.000000) scale(0.100000,-0.100000)"
fill="#000000" stroke="none">
<path d="M2280 2951 l125 -6 0 -94 0 -94 -65 -22 c-159 -54 -275 -146 -333
-265 -31 -62 -32 -70 -32 -185 0 -114 2 -124 31 -186 52 -109 144 -188 322
-278 l82 -41 0 -344 0 -344 48 -20 c50 -21 138 -42 177 -42 l25 0 0 314 c0
173 4 317 9 320 16 10 245 -112 298 -159 92 -80 128 -192 103 -317 -37 -192
-181 -298 -425 -315 -199 -13 -393 64 -508 202 -83 99 -159 247 -182 353 -18
85 -25 13 -25 -258 0 -159 4 -290 8 -290 4 0 15 13 25 29 9 16 33 36 53 46 47
22 89 17 256 -35 178 -55 239 -64 387 -57 214 10 364 68 481 186 100 100 139
197 140 341 0 266 -156 411 -655 610 -257 102 -381 183 -443 289 -24 41 -27
56 -27 141 0 85 3 100 27 141 33 56 97 115 152 140 79 36 76 44 76 -177 0
-220 4 -235 70 -302 37 -37 112 -83 157 -97 l23 -6 2 408 3 408 180 -1 c163
-1 186 -3 239 -24 111 -43 180 -132 206 -267 19 -97 9 -324 -18 -394 -28 -71
-62 -117 -114 -151 -53 -36 -101 -49 -218 -58 -88 -7 -90 -7 -30 -9 174 -5
285 -32 349 -87 82 -71 106 -151 116 -389 16 -373 90 -496 312 -524 89 -11
183 -2 230 23 40 20 93 65 93 78 0 5 -14 -2 -31 -16 -49 -42 -89 -58 -139 -59
-130 -2 -179 109 -180 408 -1 332 -150 505 -481 557 l-78 12 102 26 c128 32
214 78 277 147 81 89 115 220 90 353 -34 185 -154 300 -377 362 -75 21 -98 22
-558 23 -264 1 -424 -1 -355 -4z"/>
<path d="M3064 2695 c-27 -31 -37 -35 -78 -35 -26 0 -72 11 -106 24 -73 30
-79 16 -15 -35 93 -76 154 -171 206 -324 l24 -70 3 123 c1 68 1 175 0 237 l-3
115 -31 -35z"/>
<path d="M1958 436 c-6 -14 -8 -32 -5 -41 7 -18 46 -35 65 -28 22 9 13 20 -13
15 -17 -3 -27 1 -31 13 -10 25 10 50 35 48 12 -2 21 2 21 7 0 6 -14 10 -30 10
-23 0 -33 -6 -42 -24z"/>
<path d="M2190 415 c0 -25 5 -45 10 -45 6 0 10 7 10 15 0 8 4 15 9 15 5 0 11
-7 15 -15 3 -8 11 -15 17 -15 8 0 8 4 -1 15 -10 12 -10 18 0 30 17 20 -3 45
-36 45 -22 0 -24 -4 -24 -45z m48 17 c2 -7 -3 -12 -12 -12 -9 0 -16 7 -16 16
0 17 22 14 28 -4z"/>
<path d="M2420 416 c0 -51 5 -56 40 -45 24 7 24 7 3 8 -27 1 -31 27 -5 34 16
4 16 5 0 6 -26 2 -22 29 5 34 16 3 13 5 -10 6 -32 1 -33 0 -33 -43z"/>
<path d="M2661 422 c-12 -23 -21 -43 -21 -44 0 -2 18 -3 40 -3 22 0 40 0 40 1
0 1 -9 21 -19 44 l-19 43 -21 -41z m29 -17 c0 -8 -4 -15 -10 -15 -5 0 -10 7
-10 15 0 8 5 15 10 15 6 0 10 -7 10 -15z"/>
<path d="M2878 453 c7 -2 12 -22 12 -44 0 -21 5 -39 10 -39 6 0 10 18 10 39 0
22 5 42 13 44 6 3 -4 5 -23 5 -19 0 -29 -2 -22 -5z"/>
<path d="M3090 415 c0 -25 5 -45 10 -45 6 0 10 20 10 45 0 25 -4 45 -10 45 -5
0 -10 -20 -10 -45z"/>
<path d="M3276 440 c3 -14 12 -36 19 -49 l13 -25 21 42 c23 46 25 52 12 52 -5
0 -12 -11 -15 -25 -6 -23 -26 -36 -26 -17 0 5 -7 17 -16 28 -14 18 -15 18 -8
-6z"/>
<path d="M3510 415 c0 -44 0 -45 33 -44 23 1 26 3 10 6 -27 5 -31 30 -5 36 16
4 16 5 0 6 -26 2 -22 29 5 34 16 3 13 5 -10 6 -33 1 -33 0 -33 -44z"/>
</g>
</svg>
